<?xml version="1.0" encoding="UTF-8" standalone="no"?>
<!-- Created with Inkscape (http://www.inkscape.org/) -->

<svg
   xmlns:dc="http://purl.org/dc/elements/1.1/"
   xmlns:cc="http://creativecommons.org/ns#"
   xmlns:rdf="http://www.w3.org/1999/02/22-rdf-syntax-ns#"
   xmlns:svg="http://www.w3.org/2000/svg"
   xmlns="http://www.w3.org/2000/svg"
   xmlns:sodipodi="http://sodipodi.sourceforge.net/DTD/sodipodi-0.dtd"
   xmlns:inkscape="http://www.inkscape.org/namespaces/inkscape"
   inkscape:export-ydpi="600"
   inkscape:export-xdpi="600"
   inkscape:export-filename="/home/ankit/Dropbox/Electronics/Webdev/nomadiccontrols_hugo/static/img/logo.png"
   sodipodi:docname="nomadic_controls_logo_backup.svg"
   inkscape:version="0.91 r13725"
   version="1.1"
   id="svg2"
   height="268.01053"
   width="721.60468">
  <defs
     id="defs4" />
  <sodipodi:namedview
     fit-margin-bottom="25"
     fit-margin-right="25"
     fit-margin-left="25"
     fit-margin-top="25"
     inkscape:window-maximized="1"
     inkscape:window-y="24"
     inkscape:window-x="0"
     inkscape:window-height="825"
     inkscape:window-width="1600"
     inkscape:guide-bbox="true"
     showguides="true"
     width="1261px"
     showgrid="false"
     inkscape:current-layer="layer1"
     inkscape:document-units="px"
     inkscape:cy="89.170959"
     inkscape:cx="396.68941"
     inkscape:zoom="1.84"
     inkscape:pageshadow="2"
     inkscape:pageopacity="1"
     borderopacity="1.0"
     bordercolor="#666666"
     pagecolor="#ffffff"
     id="base">
    <inkscape:grid
       type="xygrid"
       id="grid3126"
       empspacing="5"
       visible="true"
       enabled="true"
       snapvisiblegridlinesonly="true"
       originx="-43.617912"
       originy="-155.12571" />
  </sodipodi:namedview>
  <metadata
     id="metadata7">
    <rdf:RDF>
      <cc:Work
         rdf:about="">
        <dc:format>image/svg+xml</dc:format>
        <dc:type
           rdf:resource="http://purl.org/dc/dcmitype/StillImage" />
        <dc:title></dc:title>
      </cc:Work>
    </rdf:RDF>
  </metadata>
  <g
     inkscape:label="Layer 1"
     inkscape:groupmode="layer"
     id="layer1"
     transform="translate(-56.86682,-387.12537)">
    <g
       transform="matrix(0.96978829,0,0,1.0311529,116.82323,-92.52605)"
       style="font-style:normal;font-weight:bold;font-size:123.73834991px;line-height:125%;font-family:Sans;-inkscape-font-specification:'Sans Bold';letter-spacing:0px;word-spacing:0px;fill:#000000;fill-opacity:1;stroke:none"
       id="text3096" />
    <path
       inkscape:connector-curvature="0"
       id="path2990"
       d="m 206.33289,415.85144 -11.51757,19.98633 -11.51563,19.98828 9.36328,-0.008 -17.16992,61.87305 -8.1582,-45.07227 c -0.31985,-1.52824 -0.90055,-2.8871 -1.74024,-4.07617 -0.83981,-1.18889 -1.85885,-2.22796 -3.05859,-3.11914 -1.19988,-0.891 -2.52073,-1.57075 -3.96094,-2.03711 -1.44033,-0.46617 -2.8801,-0.69912 -4.32031,-0.69922 l -26.87695,0 -32.197271,101.71289 -11.591797,-0.11523 11.333984,20.09179 11.333984,20.0918 11.73438,-19.86133 11.73242,-19.86328 -8.05078,-0.0801 24.06445,-73.07617 12.59766,65.95313 31.91406,0 28.10742,-101.74414 11.08008,-0.01 -11.55273,-19.96875 -11.55079,-19.9668 z"
       style="font-style:normal;font-variant:normal;font-weight:normal;font-stretch:normal;font-size:medium;line-height:125%;font-family:Masque;-inkscape-font-specification:Masque;letter-spacing:0px;word-spacing:0px;fill:#ff8700;fill-opacity:1;stroke:#0d394f;stroke-width:2;stroke-miterlimit:4;stroke-dasharray:none;stroke-opacity:1" />
    <path
       inkscape:connector-curvature="0"
       id="path2992"
       style="font-style:normal;font-variant:normal;font-weight:normal;font-stretch:normal;font-size:medium;line-height:125%;font-family:Masque;-inkscape-font-specification:Masque;letter-spacing:0px;word-spacing:0px;fill:#ff8700;fill-opacity:1;stroke:#0d394f;stroke-width:2;stroke-miterlimit:4;stroke-dasharray:none;stroke-opacity:1"
       d="m 308.58809,483.18368 0,-3.43484 c -1.04002,-4.5849 -2.99964,-8.08643 -5.87885,-10.50465 -2.87941,-2.41802 -6.1792,-4.17883 -9.8994,-5.28242 -3.72036,-1.10341 -7.6402,-1.74065 -11.75954,-1.91171 -4.11947,-0.17086 -7.93923,-0.25635 -11.45927,-0.25644 -7.1184,9e-5 -13.19741,0.57321 -18.23709,1.71936 -5.03975,1.14633 -9.21957,2.63192 -12.53947,4.45675 -3.31997,1.82501 -5.91977,3.84098 -7.79941,6.04789 -1.8797,2.20709 -3.21866,4.37135 -4.01689,6.49279 -1.52084,3.90637 -3.04105,8.08723 -4.56064,12.54263 -1.51961,4.45551 -2.93913,9.01782 -4.25855,13.68692 -1.31944,4.66921 -2.47958,9.35909 -3.48044,14.06966 -1.00087,4.71063 -1.70026,9.27294 -2.09815,13.68692 -0.32224,3.82083 -0.0232,7.06787 0.89711,9.74113 0.9203,2.67328 2.30015,4.92238 4.13955,6.74729 1.83938,1.82493 4.0193,3.26777 6.53979,4.32853 2.52045,1.06076 5.22033,1.86701 8.09967,2.41876 2.87928,0.55176 5.79887,0.89109 8.75878,1.01802 2.95983,0.12693 5.79947,0.1904 8.51894,0.1904 3.75929,0 7.4991,-0.16968 11.21943,-0.50901 3.72023,-0.33934 7.46004,-0.84835 11.21944,-1.52703 4.63808,-0.84965 8.91677,-2.7594 12.83608,-5.72928 3.91914,-2.96986 6.87963,-6.79002 8.88143,-11.46049 3.75926,-9.16474 6.83874,-18.43699 9.23846,-27.8168 2.39954,-9.37972 4.27921,-18.95117 5.63902,-28.71438 z m -40.79496,48.63959 c -0.40041,1.95317 -1.28043,3.48085 -2.64008,4.58302 -1.35977,1.10223 -2.93979,1.90849 -4.74007,2.41878 -1.80039,0.51032 -3.68005,0.82893 -5.63901,0.95585 -1.95905,0.12694 -3.69896,0.19041 -5.21974,0.19039 -1.59898,0.17098 -3.07832,0.044 -4.43798,-0.38079 -1.35975,-0.4248 -2.47961,-1.08276 -3.35961,-1.97387 -0.88006,-0.89106 -1.5001,-1.99457 -1.86014,-3.31051 -0.3601,-1.31589 -0.33995,-2.82218 0.0604,-4.51891 1.43779,-7.21676 3.19662,-14.34743 5.2765,-21.39201 2.07981,-7.04449 4.31954,-13.87726 6.71922,-20.49834 0.56141,-1.61373 1.44204,-2.90827 2.64191,-3.88363 1.19976,-0.9752 2.53933,-1.73871 4.0187,-2.29054 1.47929,-0.55167 3.01902,-0.91239 4.61923,-1.08213 1.60011,-0.1696 3.08005,-0.25443 4.43981,-0.25451 1.20098,8e-5 2.64124,0.0849 4.32081,0.25451 1.67943,0.16974 3.21917,0.53046 4.61922,1.08213 1.39993,0.55183 2.49965,1.40018 3.29919,2.54505 0.7994,1.14502 0.99897,2.69407 0.59869,4.64714 -1.35978,7.38524 -3.11922,14.62146 -5.27833,21.70869 -2.15925,7.08732 -4.63883,14.15387 -7.43874,21.19968 z" />
    <path
       inkscape:connector-curvature="0"
       id="path2994"
       style="font-style:normal;font-variant:normal;font-weight:normal;font-stretch:normal;font-size:medium;line-height:125%;font-family:Masque;-inkscape-font-specification:Masque;letter-spacing:0px;word-spacing:0px;fill:#ff8700;fill-opacity:1;stroke:#0d394f;stroke-width:2;stroke-miterlimit:4;stroke-dasharray:none;stroke-opacity:1"
       d="m 394.69287,492.73442 -18.47691,64.80744 26.87684,0 26.75602,-94.85457 -24.11594,0 c -3.11985,10e-5 -6.15967,0.78499 -9.11945,2.35466 -2.95996,1.56986 -5.47982,3.7134 -7.55956,6.43062 l -17.15872,22.9171 -3.95829,-21.77085 c -0.31985,-1.52824 -0.89962,-2.8869 -1.7393,-4.07597 -0.83982,-1.18889 -1.8596,-2.22893 -3.05935,-3.12011 -1.19987,-0.891 -2.51991,-1.56968 -3.96012,-2.03604 -1.44033,-0.46617 -2.8806,-0.69931 -4.3208,-0.69941 l -26.87686,0 -26.87685,94.85457 26.51801,0 18.71859,-65.95369 8.15826,45.32908 5.87702,0 z" />
    <path
       inkscape:connector-curvature="0"
       id="path2996"
       style="font-style:normal;font-variant:normal;font-weight:normal;font-stretch:normal;font-size:medium;line-height:125%;font-family:Masque;-inkscape-font-specification:Masque;letter-spacing:0px;word-spacing:0px;fill:#ff8700;fill-opacity:1;stroke:#0d394f;stroke-width:2;stroke-miterlimit:4;stroke-dasharray:none;stroke-opacity:1"
       d="m 483.57689,537.42626 0,20.1156 24.83729,0 0,-94.98279 -25.91383,0 c -0.56152,9e-5 -1.56178,0.12767 -3.00076,0.38273 -1.43911,0.25525 -3.15888,0.97667 -5.15933,2.16427 -2.00056,1.18778 -4.18048,2.99132 -6.53979,5.41065 -2.3594,2.41951 -4.77917,5.79347 -7.25931,10.12192 l -43.43504,76.90322 28.19506,0 10.802,-20.1156 z m -18.35609,-17.18976 18.83944,-35.77835 0,35.77835 z" />
    <path
       inkscape:connector-curvature="0"
       id="path2998"
       style="font-style:normal;font-variant:normal;font-weight:normal;font-stretch:normal;font-size:medium;line-height:125%;font-family:Masque;-inkscape-font-specification:Masque;letter-spacing:0px;word-spacing:0px;fill:#ff8700;fill-opacity:1;stroke:#0d394f;stroke-width:2;stroke-miterlimit:4;stroke-dasharray:none;stroke-opacity:1"
       d="m 578.03034,557.54186 c 2.55825,0 5.01707,-0.48829 7.37649,-1.46486 2.35929,-0.97657 4.57888,-2.29248 6.65879,-3.94774 2.07977,-1.65524 3.99972,-3.565 5.75985,-5.72927 1.75997,-2.16425 3.36013,-4.39263 4.80049,-6.68513 0.87872,-1.35734 1.83808,-3.45749 2.87809,-6.30045 1.03983,-2.84292 2.12004,-6.04721 3.2406,-9.61291 1.12038,-3.56562 2.20059,-7.34304 3.2406,-11.33226 1.03983,-3.98914 1.97966,-7.80865 2.8195,-11.45855 0.83966,-3.64979 1.49938,-6.96029 1.97915,-9.93152 0.47959,-2.9711 0.71943,-5.30504 0.71953,-7.0018 -10e-5,-2.54627 -0.44012,-5.00778 -1.32004,-7.38453 -0.88013,-2.37659 -2.11961,-4.45602 -3.71845,-6.23829 -2.71951,-2.97108 -5.85942,-5.02977 -9.41972,-6.17611 -3.56048,-1.14616 -7.25939,-1.71928 -11.09677,-1.71937 l -48.95688,0 -26.27633,95.11102 z m -29.27892,-19.35403 15.8405,-58.43899 20.51649,0 c 1.1204,8e-5 2.12005,0.27595 2.99892,0.82763 0.87874,0.55183 1.63853,1.27325 2.27941,2.16426 0.64072,0.89116 1.14115,1.88846 1.50129,2.99188 0.35999,1.10358 0.54003,2.16434 0.5401,3.18229 -7e-5,1.01809 -0.26005,2.65197 -0.77994,4.90165 -0.52003,2.24981 -1.18036,4.81752 -1.98098,7.70314 -0.80076,2.88574 -1.68079,5.92038 -2.64008,9.1039 -0.95943,3.18362 -1.9194,6.19688 -2.87993,9.03978 -0.96065,2.84298 -1.84067,5.34658 -2.64008,7.51081 -0.79953,2.16429 -1.39944,3.62851 -1.79973,4.39264 -0.72018,1.27449 -1.42018,2.3359 -2.09997,3.18423 -0.67992,0.84837 -1.51967,1.52704 -2.51925,2.03603 -0.9997,0.50904 -2.23918,0.86974 -3.71845,1.08214 -1.47938,0.21242 -3.29924,0.31863 -5.45959,0.31861 z" />
    <path
       inkscape:connector-curvature="0"
       id="path3000"
       style="font-style:normal;font-variant:normal;font-weight:normal;font-stretch:normal;font-size:medium;line-height:125%;font-family:Masque;-inkscape-font-specification:Masque;letter-spacing:0px;word-spacing:0px;fill:#ff8700;fill-opacity:1;stroke:#0d394f;stroke-width:2;stroke-miterlimit:4;stroke-dasharray:none;stroke-opacity:1"
       d="m 612.78716,557.54186 27.11852,0 26.99403,-94.85457 -26.75601,0 z" />
    <path
       inkscape:connector-curvature="0"
       id="path3002"
       style="font-style:normal;font-variant:normal;font-weight:normal;font-stretch:normal;font-size:medium;line-height:125%;font-family:Masque;-inkscape-font-specification:Masque;letter-spacing:0px;word-spacing:0px;fill:#ff8700;fill-opacity:1;stroke:#0d394f;stroke-width:2;stroke-miterlimit:4;stroke-dasharray:none;stroke-opacity:1"
       d="m 687.83362,529.40255 c 0.7201,-7.12869 2.1201,-14.10976 4.19997,-20.94323 2.07981,-6.83336 4.79923,-13.34817 8.15826,-19.54442 0.56142,-1.10343 1.36211,-2.0159 2.40208,-2.73738 1.03987,-0.72135 2.15913,-1.08206 3.35777,-1.08213 l 39.71842,0 6.47754,-22.78888 -53.03235,0 c -4.47951,10e-5 -8.4793,1.06085 -11.99937,3.18228 -3.52015,2.12161 -6.66004,4.94383 -9.41972,8.46666 -2.75972,3.523 -5.1392,7.53355 -7.13848,12.03167 -1.99929,4.49827 -3.7392,9.10266 -5.21975,13.81321 -1.48055,4.71066 -2.7005,9.3578 -3.65985,13.94143 -0.95938,4.58372 -1.75885,8.65903 -2.39842,12.22595 -0.56146,3.22505 -0.72197,6.66249 -0.48151,10.31231 0.24044,3.64986 0.96058,7.0452 2.1604,10.18602 1.19981,3.14085 2.97939,5.81477 5.33875,8.02176 2.35934,2.20701 5.41868,3.52162 9.17804,3.94386 16.71927,1.95314 33.39828,1.57106 50.03708,-1.14624 l 6.35671,-23.55434 c -6.55939,1.35997 -13.17851,2.06067 -19.85738,2.10209 -6.67899,0.0415 -13.37866,-0.44681 -20.09906,-1.46485 -1.19862,-0.25384 -2.2178,-0.84768 -3.05751,-1.78154 -0.83979,-0.9338 -1.18032,-1.99522 -1.02162,-3.18423 z" />
    <rect
       inkscape:export-ydpi="90"
       inkscape:export-xdpi="90"
       ry="5.3071494"
       y="595.10455"
       x="467.70706"
       height="59.739536"
       width="417.22702"
       id="rect3962"
       style="font-style:normal;font-weight:bold;font-size:120px;line-height:125%;font-family:Sans;-inkscape-font-specification:'Sans Bold';letter-spacing:0px;word-spacing:0px;opacity:1;fill:#0d394f;fill-opacity:1;stroke:#0d394f;stroke-width:1.55961633;stroke-linecap:round;stroke-linejoin:round;stroke-miterlimit:4;stroke-dasharray:none;stroke-opacity:1"
       transform="matrix(1,0,-0.27611697,0.96112404,0,0)" />
    <path
       d="m 317.66235,608.28424 c 1.34406,-2.82333 3.00447,-5.5519 4.98122,-8.1857 1.9767,-2.63378 4.24833,-5.14643 6.81487,-7.53798 0.38234,-0.37083 0.83466,-0.67069 1.35692,-0.89954 0.52217,-0.2288 1.02397,-0.34321 1.50533,-0.34323 l 21.50649,0 6.95132,-9.90341 -28.70688,0 c -2.49486,3e-5 -4.8687,0.43675 -7.12155,1.31017 -2.25291,0.87348 -4.36852,2.0176 -6.34686,3.43233 -1.97839,1.41481 -3.8081,3.01631 -5.48914,4.80451 -1.68105,1.78825 -3.23176,3.61186 -4.6521,5.47082 -1.42036,1.85901 -2.6812,3.67332 -3.78252,5.44292 -1.10135,1.76966 -2.07658,3.38381 -2.92567,4.84247 -0.74792,1.30787 -1.3073,2.69862 -1.67819,4.17228 -0.37088,1.47365 -0.44314,2.85124 -0.21681,4.13275 0.22637,1.2815 0.85135,2.38533 1.87502,3.31146 1.02365,0.92615 2.58189,1.47961 4.67472,1.66039 8.63766,0.76342 17.71371,0.59608 27.22819,-0.50207 l 6.94767,-10.14825 c -4.1363,0.53101 -7.95901,0.80476 -11.46811,0.82128 -3.50921,0.0166 -6.97232,-0.17406 -10.38943,-0.5718 -0.37975,-0.063 -0.69291,-0.22906 -0.93948,-0.49819 -0.24664,-0.26911 -0.28829,-0.53951 -0.12501,-0.81121 z"
       style="font-style:normal;font-variant:normal;font-weight:bold;font-stretch:normal;font-size:123.73834991px;line-height:125%;font-family:Masque;-inkscape-font-specification:'Masque Bold';letter-spacing:0px;word-spacing:0px;fill:#ffffff;fill-opacity:1;stroke:#ff8700;stroke-width:0;stroke-miterlimit:4;stroke-dasharray:none;stroke-opacity:1"
       id="path3101"
       inkscape:connector-curvature="0" />
    <path
       inkscape:connector-curvature="0"
       id="path4188"
       d="m 352.05064,619.59057 c -6.57635,-1.86957 -6.9964,-5.38521 -1.69695,-14.20267 2.02576,-3.37056 5.87302,-8.959 8.54946,-12.41876 6.18579,-7.99618 10.67512,-10.44739 21.58548,-11.78581 13.99973,-1.71742 23.85963,0.59735 24.45703,5.74168 0.30918,2.6624 -4.99334,11.8922 -12.15771,21.16225 -5.81609,7.5255 -9.81948,10.21194 -17.24419,11.57157 -5.5681,1.01963 -19.81196,0.97825 -23.49312,-0.0683 z m 22.30818,-8.32987 c 1.59617,-0.85425 9.7101,-11.40679 12.72041,-16.5435 2.79353,-4.76681 2.2098,-5.7356 -3.45594,-5.7356 -2.52973,0 -5.40558,0.36727 -6.39077,0.81615 -1.86893,0.85154 -7.95262,8.67644 -12.73348,16.37793 -2.72497,4.38966 -2.75346,4.51514 -1.27687,5.62437 1.63074,1.22504 8.45764,0.89441 11.13665,-0.53935 z"
       style="fill:#ffffff;fill-opacity:1;stroke:#ff8700;stroke-width:0;stroke-miterlimit:4;stroke-dasharray:none;stroke-opacity:1" />
    <path
       inkscape:connector-curvature="0"
       id="path4190"
       d="m 392.51851,618.26956 c 0.78129,-1.22342 6.78147,-10.02665 13.33373,-19.56273 l 11.91321,-17.33832 8.64669,-0.0364 c 7.67198,-0.0323 8.82129,0.13818 10.19558,1.51247 0.97045,0.97045 1.41248,2.19035 1.18362,3.26653 -0.85747,4.03213 -2.15207,16.00467 -1.77172,16.38502 0.22829,0.22829 3.65064,-4.43644 7.60523,-10.36606 l 7.19016,-10.78114 6.75224,-0.0266 c 6.2087,-0.0245 6.69173,0.0817 6.00043,1.31842 -0.4135,0.73977 -6.40015,9.47292 -13.30367,19.407 l -12.55185,18.06197 -8.48505,0.21598 -8.48506,0.21598 1.39335,-12.12919 c 0.76634,-6.67106 1.30714,-12.76551 1.20178,-13.54323 -0.11974,-0.88385 -3.61541,3.65498 -9.32321,12.10536 l -9.13164,13.5194 -6.89217,0 -6.89216,0 1.42051,-2.22441 z"
       style="fill:#ffffff;fill-opacity:1;stroke:#ff8700;stroke-width:0;stroke-miterlimit:4;stroke-dasharray:none;stroke-opacity:1" />
    <path
       inkscape:connector-curvature="0"
       id="path4192"
       d="m 461.18427,613.76877 c 2.58225,-3.69886 7.33305,-10.49927 10.55733,-15.11202 l 5.86234,-8.38681 -6.37142,0.49133 c -4.74547,0.36595 -7.26182,0.98898 -9.86052,2.44143 -1.91901,1.07255 -3.68622,1.75297 -3.92715,1.51205 -0.84067,-0.84067 8.01251,-8.03724 12.94924,-10.52617 l 4.97578,-2.50863 17.18549,-0.2456 17.18548,-0.24561 -3.28986,4.66503 -3.28987,4.66502 -5.8053,0.0325 -5.8053,0.0325 -10.34939,14.95509 -10.34939,14.9551 -7.18122,0 -7.18123,0 4.69499,-6.7252 z"
       style="fill:#ffffff;fill-opacity:1;stroke:#ff8700;stroke-width:0;stroke-miterlimit:4;stroke-dasharray:none;stroke-opacity:1" />
    <path
       inkscape:connector-curvature="0"
       id="path4194"
       d="m 491.28398,619.85821 c 0.14659,-0.38378 6.14628,-9.20834 13.33263,-19.61015 l 13.06611,-18.91238 14.10283,-0.02 c 15.74144,-0.0223 18.44704,0.60188 20.12055,4.6421 0.81948,1.9784 0.68043,2.76135 -1.1576,6.51815 -2.49941,5.10861 -7.97323,10.78841 -12.9328,13.41945 l -3.60821,1.91415 0,6.34222 0,6.34223 -6.42858,0 -6.42858,0 -0.48877,-3.56595 c -0.26882,-1.96127 -0.48876,-4.55528 -0.48876,-5.76446 0,-2.14405 -0.0999,-2.19767 -4.03512,-2.16482 l -4.03512,0.0337 -3.87744,5.53862 -3.87744,5.53863 -6.76512,0.22316 c -3.83419,0.12647 -6.64965,-0.0792 -6.49858,-0.47462 z m 40.82205,-21.41078 c 4.53114,-3.14008 6.77955,-8.68597 3.96009,-9.7679 -0.66867,-0.25659 -3.01485,-0.46652 -5.21374,-0.46652 l -3.99799,0 -4.37223,6.14875 -4.37223,6.14875 5.50954,0 c 4.72589,0 5.93297,-0.29344 8.48656,-2.06308 z"
       style="fill:#ffffff;fill-opacity:1;stroke:#ff8700;stroke-width:0;stroke-miterlimit:4;stroke-dasharray:none;stroke-opacity:1" />
    <path
       inkscape:connector-curvature="0"
       id="path4196"
       d="m 549.33809,619.75897 c -7.41526,-2.3847 -7.06355,-6.66365 1.60852,-19.56923 10.97803,-16.33726 16.19601,-19.2585 34.37241,-19.24306 11.25362,0.01 15.06706,1.06997 16.69476,4.64239 0.83964,1.84281 0.66381,2.57806 -1.61781,6.76514 -7.45117,13.67387 -16.33444,23.89248 -22.7629,26.18462 -4.37121,1.55861 -24.53831,2.42826 -28.29498,1.22014 z m 22.43441,-8.60648 c 1.42194,-0.88802 9.57886,-11.55895 12.74271,-16.6701 2.83589,-4.58134 2.27606,-5.50079 -3.3493,-5.50079 -2.52211,0 -5.42575,0.3194 -6.45252,0.70978 -1.83741,0.69858 -10.06497,11.23227 -13.63938,17.46241 -1.60282,2.79369 -1.69305,3.34613 -0.73506,4.50044 0.90501,1.09046 1.86924,1.22791 5.62963,0.80247 2.49568,-0.28236 5.10744,-0.86925 5.80392,-1.30421 z"
       style="fill:#ffffff;fill-opacity:1;stroke:#000000;stroke-width:0;stroke-miterlimit:4;stroke-dasharray:none;stroke-opacity:1" />
    <path
       inkscape:connector-curvature="0"
       id="path4198"
       d="m 597.05699,619.94509 c -1.1532,-0.17521 -2.8231,-1.242 -3.71089,-2.37064 -2.86127,-3.63752 -1.73119,-6.07796 11.72781,-25.32632 l 7.65827,-10.95247 6.85332,0 c 3.76932,0 6.85331,0.19732 6.85331,0.43849 0,0.24118 -3.40985,5.34272 -7.57744,11.33677 -9.15324,13.16465 -10.35182,15.3351 -9.13853,16.54839 0.49914,0.49914 3.40535,0.90366 6.68582,0.93061 l 5.80289,0.0477 -3.26653,1.64094 c -1.79659,0.9025 -3.26653,1.87161 -3.26653,2.15357 0,0.28195 1.41691,1.49456 3.14869,2.69468 2.71307,1.88016 2.95232,2.25931 1.72934,2.74059 -1.47831,0.58174 -19.83989,0.67372 -23.49953,0.11771 z"
       style="fill:#ffffff;fill-opacity:1;stroke:#000000;stroke-width:0;stroke-miterlimit:4;stroke-dasharray:none;stroke-opacity:1" />
    <path
       inkscape:connector-curvature="0"
       id="path4200"
       d="m 626.58215,619.9806 c -3.64189,-2.71996 -6.75833,-5.07974 -6.9254,-5.24396 -0.28373,-0.27887 19.71852,-10.38315 20.5543,-10.38315 0.21053,0 0.0396,0.88718 -0.37983,1.97152 -0.41944,1.08433 -0.76263,2.29487 -0.76263,2.69008 0,0.40719 4.15086,0.71365 9.57923,0.70723 9.84828,-0.0117 13.2492,-0.79503 13.7123,-3.15853 0.19617,-1.00126 -0.95215,-1.28549 -6.66257,-1.64912 -3.79478,-0.24165 -7.85708,-0.86815 -9.02735,-1.39224 -1.84698,-0.82713 -2.12776,-1.39968 -2.12776,-4.33871 0,-1.8622 0.36427,-4.05483 0.80949,-4.87249 1.02546,-1.8833 -0.46767,-2.02075 -3.00157,-0.27632 -0.96695,0.66569 -2.16539,1.0769 -2.6632,0.91381 -1.39454,-0.45689 8.62302,-8.2847 13.45703,-10.51545 4.23656,-1.95504 4.6135,-1.98843 25.20435,-2.23252 l 20.90347,-0.24781 0.92018,-3.01872 c 0.5061,-1.6603 1.08304,-3.01872 1.2821,-3.01872 0.76291,0 13.46611,9.57037 13.46611,10.14513 0,0.66919 -19.6299,10.01542 -20.08856,9.56461 -0.15763,-0.15493 0.0664,-1.19433 0.4979,-2.30978 0.43148,-1.11544 0.52929,-2.06909 0.21737,-2.11922 -0.31192,-0.0501 -8.13276,-0.0216 -17.37964,0.0633 -17.24814,0.15844 -20.33141,0.67739 -20.33141,3.42201 0,1.54616 1.80676,1.986 8.15803,1.986 7.08623,0 10.46191,1.07617 11.0899,3.53548 0.83391,3.26568 -0.46313,5.81294 -5.4614,10.72567 -6.28152,6.174 -9.40348,7.14965 -24.92971,7.79078 -7.50198,0.30979 -11.5465,0.77038 -11.56945,1.31754 -0.0194,0.46269 -0.45926,1.75199 -0.97746,2.86512 l -0.9422,2.02386 -6.62162,-4.94539 z"
       style="fill:#ffffff;fill-opacity:1;stroke:#cbcfc4;stroke-width:0;stroke-miterlimit:4;stroke-dasharray:none;stroke-opacity:1" />
  </g>
</svg>
