<?xml version="1.0" encoding="UTF-8" standalone="no"?>
<!-- Created with Inkscape (http://www.inkscape.org/) -->

<svg
   inkscape:export-ydpi="360"
   inkscape:export-xdpi="360"
   inkscape:export-filename="../../../../../../home/ankit/Downloads/logo.png"
   sodipodi:docname="Nomadic_logo1.svg"
   inkscape:version="1.2.2 (b0a8486541, 2022-12-01)"
   version="1.1"
   id="svg2"
   height="209.48599"
   width="264.47501"
   xmlns:inkscape="http://www.inkscape.org/namespaces/inkscape"
   xmlns:sodipodi="http://sodipodi.sourceforge.net/DTD/sodipodi-0.dtd"
   xmlns="http://www.w3.org/2000/svg"
   xmlns:svg="http://www.w3.org/2000/svg"
   xmlns:rdf="http://www.w3.org/1999/02/22-rdf-syntax-ns#"
   xmlns:cc="http://creativecommons.org/ns#"
   xmlns:dc="http://purl.org/dc/elements/1.1/">
  <defs
     id="defs4" />
  <sodipodi:namedview
     fit-margin-bottom="25"
     fit-margin-right="25"
     fit-margin-left="25"
     fit-margin-top="25"
     inkscape:window-maximized="1"
     inkscape:window-y="0"
     inkscape:window-x="0"
     inkscape:window-height="1012"
     inkscape:window-width="1920"
     inkscape:guide-bbox="true"
     showguides="false"
     width="1261px"
     showgrid="false"
     inkscape:current-layer="layer2"
     inkscape:document-units="px"
     inkscape:cy="130.1953"
     inkscape:cx="163.82309"
     inkscape:zoom="2.7804383"
     inkscape:pageshadow="2"
     inkscape:pageopacity="1"
     borderopacity="1.0"
     bordercolor="#666666"
     pagecolor="#ffffff"
     id="base"
     inkscape:showpageshadow="0"
     inkscape:pagecheckerboard="1"
     inkscape:deskcolor="#d1d1d1">
    <inkscape:grid
       type="xygrid"
       id="grid3126"
       empspacing="5"
       visible="true"
       enabled="true"
       snapvisiblegridlinesonly="true"
       originx="-93.020882"
       originy="-191.51373" />
  </sodipodi:namedview>
  <metadata
     id="metadata7">
    <rdf:RDF>
      <cc:Work
         rdf:about="">
        <dc:format>image/svg+xml</dc:format>
        <dc:type
           rdf:resource="http://purl.org/dc/dcmitype/StillImage" />
      </cc:Work>
    </rdf:RDF>
  </metadata>
  <g
     inkscape:groupmode="layer"
     id="layer2"
     inkscape:label="Layer 2"
     style="display:inline"
     transform="translate(-49.40297,-36.388028)">
    <path
       id="rect3962"
       style="font-weight:bold;font-size:120px;line-height:125%;font-family:Sans;-inkscape-font-specification:'Sans Bold';letter-spacing:0px;word-spacing:0px;display:none;opacity:1;fill:#000000;fill-opacity:1;stroke:#000000;stroke-width:1.81428;stroke-linecap:round;stroke-linejoin:round"
       d="m 117.61885,26.703454 h 595.152 c 24.51098,0 32.28722,16.650184 26.17976,40.388066 l -52.61898,204.51447 c -6.10745,23.73789 -37.79656,40.38807 -62.30754,40.38807 H 32.221378 c -24.51098,0 -31.920464,-16.55883 -26.179755,-40.38807 L 55.31131,67.09152 C 61.052023,43.262288 93.107867,26.703454 117.61885,26.703454 Z"
       sodipodi:nodetypes="sssssssss" />
    <rect
       style="display:inline;fill:#000000;fill-opacity:1;stroke:#000000;stroke-width:0.822234;stroke-opacity:1"
       id="rect1093"
       width="236.65279"
       height="182.66403"
       x="63.814087"
       y="48.799145"
       rx="13.24269"
       ry="10.348958" />
  </g>
  <g
     inkscape:label="Layer 1"
     inkscape:groupmode="layer"
     id="layer1"
     transform="translate(-106.26979,-423.51339)">
    <g
       transform="matrix(0.96978829,0,0,1.0311529,116.82323,-92.52605)"
       style="font-style:normal;font-weight:bold;font-size:123.738px;line-height:125%;font-family:Sans;-inkscape-font-specification:'Sans Bold';letter-spacing:0px;word-spacing:0px;fill:#000000;fill-opacity:1;stroke:none"
       id="text3096" />
    <path
       inkscape:connector-curvature="0"
       id="path2990"
       d="m 240.34764,445.59597 -19.8334,34.42129 h 8.06253 l -14.78466,53.27069 -7.02485,-38.81078 c -0.27542,-1.31593 -0.77545,-2.48602 -1.49849,-3.5099 -0.72314,-1.02373 -1.60061,-1.91845 -2.63368,-2.68583 -1.0332,-0.76722 -2.17055,-1.35254 -3.41069,-1.75411 -1.24023,-0.40141 -2.47999,-0.602 -3.72012,-0.60208 H 172.3611 l -27.72439,87.48359 h -6.81633 l 16.35379,34.60124 20.20677,-34.60124 h -6.93236 l 20.72139,-62.5981 10.84758,56.79085 h 27.48052 l 24.2027,-87.58433 h 6.87547 c -6.82857,-13.53062 -17.2286,-34.42129 -17.2286,-34.42129 z"
       style="font-style:normal;font-variant:normal;font-weight:normal;font-stretch:normal;font-size:medium;line-height:125%;font-family:Masque;-inkscape-font-specification:Masque;letter-spacing:0px;word-spacing:0px;fill:#ffffff;fill-opacity:1;stroke:#ffffff;stroke-width:1.72216;stroke-miterlimit:4;stroke-dasharray:none;stroke-opacity:1"
       sodipodi:nodetypes="ccccccccccccccccccccc" />
    <path
       d="m 275.67669,540.95781 c 1.98514,-6.55885 4.43751,-12.89756 7.35711,-19.01611 2.91953,-6.11851 6.27466,-11.95562 10.06536,-17.5114 0.5647,-0.86147 1.23277,-1.55807 2.00413,-2.08971 0.77123,-0.53152 1.51237,-0.79731 2.22333,-0.79735 h 31.76443 l 10.2669,-23.00651 h -42.3992 c -3.68484,7e-5 -7.19093,1.01461 -10.51832,3.04365 -3.32748,2.02917 -6.45217,4.68706 -9.37412,7.9736 -2.92202,3.28673 -5.62445,7.00716 -8.10729,11.16131 -2.48286,4.15426 -4.77322,8.39067 -6.87102,12.7092 -2.09782,4.31864 -3.96005,8.53345 -5.58666,12.64439 -1.62666,4.11107 -3.06705,7.86089 -4.32113,11.24948 -1.10466,3.0383 -1.93084,6.26914 -2.47864,9.69258 -0.54777,3.42342 -0.6545,6.62369 -0.32022,9.60075 0.33434,2.97704 1.25742,5.54133 2.76935,7.69281 1.5119,2.15153 3.81337,3.43727 6.90442,3.85724 13.1562,0 25.76515,0 40.21522,0 l 10.2615,-24.74164 c 0,0 -16.23354,0.57956 -32.28293,0.57956 -0.56088,-0.14635 -1.02341,-0.53213 -1.38758,-1.15734 -0.36428,-0.62517 -0.4258,-1.25333 -0.18464,-1.88451 z"
       style="font-style:normal;font-variant:normal;font-weight:bold;font-stretch:normal;font-size:123.738px;line-height:125%;font-family:Masque;-inkscape-font-specification:'Masque Bold';letter-spacing:0px;word-spacing:0px;fill:#ffffff;fill-opacity:1;stroke:#ff8700;stroke-width:0;stroke-miterlimit:4;stroke-dasharray:none;stroke-opacity:1"
       id="path3101"
       inkscape:connector-curvature="0"
       sodipodi:nodetypes="cscscccccccsscscscccccc" />
  </g>
</svg>
